{"title":"22 Jump Street (2014) [BDRip] [XviD-torentup] [Lektor PL]","uid":14857448,"size":735170864,"categoryP":"video","categoryS":"movies","magnet":"?xt=urn:btih:9ebb963c17f7a12ce279e57e20f5b205d3d698a0&amp;dn=22+Jump+Street+%282014%29+%5BBDRip%5D+%5BXviD-torentup%5D+%5BLektor+PL%5D&amp;tr=udp%3A%2F%2Ftracker.leechers-paradise.org%3A6969&amp;tr=udp%3A%2F%2Fzer0day.ch%3A1337&amp;tr=udp%3A%2F%2Fopen.demonii.com%3A1337&amp;tr=udp%3A%2F%2Ftracker.coppersurfer.tk%3A6969&amp;tr=udp%3A%2F%2Fexodus.desync.com%3A6969","seeders":4,"leechers":1,"uploader":"torentup","files":5,"time":1465493912,"description":"=====================\r\nINFO\r\n================\r\n\r\nGatunek: Akcja, Komedia kryminalna\r\nProdukcja: USA\r\nPremiera: 13 czerwca 2014 (Polska), 5 czerwca 2014(świat)\r\nCzas trwania: 1 godz. 52 min.\r\nReżyseria: Christopher Miller\r\nScenariusz: Michael Bacall, Oren Uziel, Rodney Rothman\r\n \r\n=====================\r\nOPIS\r\n====================\r\n\r\nOficerowie Schmidt (Jonah Hill) i Jenko (Channing Tatum) przebrnęli już przez szkołę średnią (dwukrotnie) i czekają ich duże zmiany. Tym razem będą działać pod przykrywką w szkole wyższej. Kiedy jednak Jenko spotyka w szkolnej drużynie sportowej bratnią duszę, a Schmidt przenika do środowiska artystycznej bohemy, ich przyjaźń staje pod znakiem zapytania. Teraz nie chodzi już tylko o to, aby prowadzić śledztwo. Partnerzy muszą zdecydować, czy są w stanie wytrwać w dojrzałej relacji. Jeśli ci dwaj przerośnięci młodzi ludzie staną się w końcu prawdziwymi mężczyznami, uczelnia może okazać się najlepszą rzeczą, jaka ich spotkała.  Rekruci stoczą walkę z najbardziej wrogimi stworami! Będą musieli zmierzyć się ze strzelającym kwasem Corroderem, niebezpiecznym Rotorem i szalonym snajperem Xplodem. Zobacz swoich Bohaterów w akcji! \r\n\r\n=====================\r\nOBSADA\r\n====================\r\n\r\nJonah Hill............... - Schmidt\r\nChanning Tatum........... - Jenko\r\nPeter Stormare........... - Duch\r\nWyatt Russell............ - Zook\r\nAmber Stevens............ - Maya\r\nJillian Bell............. - Mercedes\r\nIce Cube................. - Kapitan Dickson\r\nThe Lucas Brothers....... - Keith &amp; Kenny Yang\r\n\r\n=====================\r\nDANE TECHNICZNE\r\n=====================\r\n\r\nFormat                         : AVI\r\nFormat/Info                    : Audio Video Interleave\r\nFile size                      : 701 MiB\r\nDuration                       : 1h 51mn\r\nOverall bit rate               : 876 Kbps\r\nWriting application            : VirtualDubMod 1.5.10.2 (build 2540/release)\r\nWriting library                : VirtualDubMod build 2540/release\r\n\r\nVideo\r\nID                             : 0\r\nFormat                         : MPEG-4 Visual\r\nFormat profile                 : Advanced   \r\nFormat settings, BVOP          : 2\r\nFormat settings, QPel          : No\r\nFormat settings, GMC           : No warppoints\r\nFormat settings, Matrix        : Default (H.263)\r\nMuxing mode                    : Packed bitstream\r\nCodec ID                       : XVID\r\nCodec ID/Hint                  : XviD\r\nDuration                       : 1h 51mn\r\nBit rate                       : 738 Kbps\r\nWidth                          : 640 pixels\r\nHeight                         : 272 pixels\r\nDisplay aspect ratio           : 2.35:1\r\nFrame rate                     : 23.976 fps\r\nColor space                    : YUV\r\nChroma subsampling             : 4:2:0\r\nBit depth                      : 8 bits\r\nScan type                      : Progressive\r\nCompression mode               : Lossy\r\nBits/(Pixel*Frame)             : 0.177\r\nStream size                    : 591 MiB (84%)\r\nWriting library                : XviD 65\r\n\r\nAudio\r\nID                             : 1\r\nFormat                         : MPEG Audio\r\nFormat version                 : Version 1\r\nFormat profile                 : Layer 3\r\nMode                           : Joint stereo\r\nMode extension                 : MS Stereo\r\nCodec ID                       : 55\r\nCodec ID/Hint                  : MP3\r\nDuration                       : 1h 51mn\r\nBit rate mode                  : Constant\r\nBit rate                       : 128 Kbps\r\nChannel(s)                     : 2 channels\r\nSampling rate                  : 48.0 KHz\r\nCompression mode               : Lossy\r\nStream size                    : 102 MiB (15%)\r\nAlignment                      : Aligned on interleaves\r\nInterleave, duration           : 42 ms (1.00 video frame)\r\nInterleave, preload duration   : 504 ms","torrent":{"xt":"urn:btih:9ebb963c17f7a12ce279e57e20f5b205d3d698a0","amp;dn":"22+Jump+Street+%282014%29+%5BBDRip%5D+%5BXviD-torentup%5D+%5BLektor+PL%5D","amp;tr":["udp%3A%2F%2Ftracker.leechers-paradise.org%3A6969","udp%3A%2F%2Fzer0day.ch%3A1337","udp%3A%2F%2Fopen.demonii.com%3A1337","udp%3A%2F%2Ftracker.coppersurfer.tk%3A6969","udp%3A%2F%2Fexodus.desync.com%3A6969"],"infoHash":"9ebb963c17f7a12ce279e57e20f5b205d3d698a0","infoHashBuffer":{"type":"Buffer","data":[158,187,150,60,23,247,161,44,226,121,229,126,32,245,178,5,211,214,152,160]},"announce":[],"urlList":[]}}